<svg xmlns="http://www.w3.org/2000/svg" width="28.968" height="28.93" viewBox="0 0 28.968 28.93">
  <defs>
    <style>
      .cls-1 {
        fill: #777;
        fill-rule: evenodd;
      }
    </style>
  </defs>
  <path id="exp1.svg" class="cls-1" d="M177.468,1452.76a1.067,1.067,0,0,0-.909-0.8l-2.373-.31c-0.051-.14-0.087-0.24-0.092-0.25l-0.04-.09s-0.037-.09-0.1-0.21l1.458-1.9a1.079,1.079,0,0,0,.074-1.21,15.8,15.8,0,0,0-4.346-4.35,1.075,1.075,0,0,0-1.212.07l-1.9,1.46c-0.127-.06-0.211-0.09-0.211-0.09s-0.022-.01-0.034-0.02l-0.088-.03s-0.085-.04-0.217-0.09l-0.31-2.37a1.084,1.084,0,0,0-.805-0.91,15.894,15.894,0,0,0-6.147,0,1.083,1.083,0,0,0-.805.91l-0.31,2.37a1.665,1.665,0,0,1-.237.09l-0.072.03c-0.01.01-.02,0.01-0.03,0.02s-0.083.03-.211,0.09l-1.9-1.46a1.094,1.094,0,0,0-1.213-.07,15.8,15.8,0,0,0-4.346,4.35,1.081,1.081,0,0,0,.074,1.21l1.458,1.9c-0.058.12-.095,0.21-0.095,0.21h0.005a1.279,1.279,0,0,0-.055.12s-0.033.08-.083,0.22l-2.372.31a1.069,1.069,0,0,0-.91.8,16.014,16.014,0,0,0,0,6.15,1.082,1.082,0,0,0,.91.8l2.372,0.31c0.052,0.14.087,0.23,0.09,0.24l0.03,0.07c0,0.01.008,0.02,0.013,0.03s0.037,0.09.095,0.21l-1.458,1.9a1.081,1.081,0,0,0-.074,1.21,13.57,13.57,0,0,0,1.961,2.39,14.085,14.085,0,0,0,2.386,1.96,1.094,1.094,0,0,0,1.212-.08l1.9-1.45c0.129,0.05.212,0.09,0.212,0.09a0.037,0.037,0,0,0,.03.01l0.091,0.04s0.085,0.03.218,0.08l0.31,2.38a1.084,1.084,0,0,0,.805.91,16.432,16.432,0,0,0,6.147,0,1.084,1.084,0,0,0,.805-0.91l0.31-2.38c0.137-.05.23-0.08,0.24-0.09l0.1-.04s0.083-.04.211-0.09l1.9,1.45a1.1,1.1,0,0,0,1.213.08,14.125,14.125,0,0,0,2.384-1.96,13.456,13.456,0,0,0,1.961-2.39,1.079,1.079,0,0,0-.073-1.21l-1.459-1.9,0.1-.21,0.012-.03,0.038-.09s0.033-.08.082-0.22l2.373-.31a1.08,1.08,0,0,0,.909-0.8A15.962,15.962,0,0,0,177.468,1452.76Zm-1.981,4.9-2.239.3a1.074,1.074,0,0,0-.886.72c-0.128.38-.274,0.76-0.274,0.76l-0.023.06c-0.032.07-.184,0.41-0.343,0.73a1.083,1.083,0,0,0,.113,1.14l1.376,1.79a13.923,13.923,0,0,1-1.216,1.37,15.094,15.094,0,0,1-1.373,1.22l-1.79-1.38a1.1,1.1,0,0,0-1.141-.11c-0.354.17-.722,0.34-0.722,0.34h0l-0.049.02s-0.39.15-.776,0.28a1.085,1.085,0,0,0-.725.89l-0.293,2.24a15.294,15.294,0,0,1-3.662,0l-0.292-2.24a1.086,1.086,0,0,0-.726-0.89c-0.376-.13-0.755-0.27-0.755-0.27l-0.058-.03c-0.072-.03-0.408-0.18-0.732-0.34a1.1,1.1,0,0,0-1.141.11l-1.79,1.38a14.828,14.828,0,0,1-1.373-1.22,13.958,13.958,0,0,1-1.217-1.37l1.377-1.79a1.083,1.083,0,0,0,.113-1.14c-0.161-.33-0.313-0.67-0.344-0.74l-0.015-.03c0-.01-0.151-0.39-0.281-0.78a1.072,1.072,0,0,0-.886-0.72l-2.24-.3a15.209,15.209,0,0,1,0-3.66l2.239-.29a1.084,1.084,0,0,0,.886-0.73c0.129-.38.279-0.76,0.281-0.77a0.036,0.036,0,0,1,.009-0.02h0s0.17-.39.35-0.75a1.083,1.083,0,0,0-.113-1.14l-1.377-1.79a12.97,12.97,0,0,1,1.216-1.37,14.947,14.947,0,0,1,1.374-1.22l1.79,1.38a1.1,1.1,0,0,0,1.141.11c0.326-.16.666-0.32,0.734-0.35l0.035-.01c0.007,0,.394-0.15.776-0.28a1.1,1.1,0,0,0,.726-0.89l0.292-2.24a15.294,15.294,0,0,1,3.662,0l0.293,2.24a1.1,1.1,0,0,0,.725.89c0.378,0.13.76,0.27,0.76,0.27h0l0.055,0.03c0.076,0.03.41,0.18,0.732,0.34a1.074,1.074,0,0,0,1.14-.12l1.79-1.37a16.048,16.048,0,0,1,1.373,1.21,13.827,13.827,0,0,1,1.216,1.38l-1.376,1.79a1.083,1.083,0,0,0-.113,1.14c0.174,0.35.338,0.72,0.338,0.72h0l0.02,0.05s0.152,0.39.282,0.77a1.071,1.071,0,0,0,.886.73l2.239,0.29a14.518,14.518,0,0,1,.111,1.83A14.258,14.258,0,0,1,175.487,1457.66Zm-12.19-8.74a6.91,6.91,0,1,0,6.908,6.91A6.917,6.917,0,0,0,163.3,1448.92Zm0,11.65a4.74,4.74,0,1,1,4.739-4.74A4.742,4.742,0,0,1,163.3,1460.57Z" transform="translate(-148.813 -1441.38)"/>
</svg>
