<svg xmlns="http://www.w3.org/2000/svg" width="30.625" height="29.28" viewBox="0 0 30.625 29.28">
  <defs>
    <style>
      .cls-1 {
        fill: #777;
        fill-rule: evenodd;
      }
    </style>
  </defs>
  <path id="exp2.svg" class="cls-1" d="M171.941,1562.18a1.311,1.311,0,0,1-.734-0.22l-7.894-5.13-7.895,5.13a1.33,1.33,0,0,1-1.534-.05,1.345,1.345,0,0,1-.5-1.45l2.473-8.78-7.379-6.25a1.352,1.352,0,0,1,.774-2.38l8.85-.64,3.982-8.73a1.355,1.355,0,0,1,2.454,0l3.982,8.73,8.849,0.64a1.352,1.352,0,0,1,.775,2.38l-7.379,6.25,2.472,8.78a1.344,1.344,0,0,1-.5,1.45A1.319,1.319,0,0,1,171.941,1562.18Zm-8.628-8.3a1.382,1.382,0,0,1,.734.21l5.624,3.65-1.736-6.16a1.352,1.352,0,0,1,.427-1.4l5.515-4.67-6.347-.46a1.341,1.341,0,0,1-1.13-.79l-3.087-6.76-3.087,6.76a1.343,1.343,0,0,1-1.131.79l-6.346.46,5.515,4.67a1.356,1.356,0,0,1,.427,1.4l-1.737,6.16,5.625-3.65A1.379,1.379,0,0,1,163.313,1553.88Z" transform="translate(-148 -1532.91)"/>
</svg>
