<svg xmlns="http://www.w3.org/2000/svg" width="26.5" height="37.82" viewBox="0 0 26.5 37.82">
  <defs>
    <style>
      .cls-1 {
        fill: #777;
        fill-rule: evenodd;
      }
    </style>
  </defs>
  <path id="exp4.svg" class="cls-1" d="M566.866,1541.82h-0.982c0.006-2.58-.41-7.27-3.2-10.39a10.45,10.45,0,0,0-14.8,0c-2.8,3.12-3.211,7.81-3.2,10.39H543.7a1.661,1.661,0,0,0-1.666,1.66v21.01a1.67,1.67,0,0,0,1.666,1.67h23.169a1.669,1.669,0,0,0,1.665-1.67v-21.01A1.66,1.66,0,0,0,566.866,1541.82Zm-16.5-8.17a7.13,7.13,0,0,1,9.82,0c2.067,2.3,2.367,6.09,2.359,8.17H548.012C548.005,1539.74,548.3,1535.95,550.371,1533.65Zm14.829,29.18H545.362v-17.68H565.2v17.68Zm-7.742-8.87a4.186,4.186,0,0,0,.733-2.15,2.891,2.891,0,1,0-5.747,0,4.052,4.052,0,0,0,.759,2.15l-1.639,4.25a0.831,0.831,0,0,0,.089.77,0.85,0.85,0,0,0,.687.36h5.955a0.848,0.848,0,0,0,.686-0.36,0.838,0.838,0,0,0,.093-0.77Zm-3.9,3.71,1.366-3.54a0.82,0.82,0,0,0-.141-0.83,2.964,2.964,0,0,1-.67-1.49c0-.02.033-1.54,1.208-1.54s1.207,1.52,1.207,1.54a3.028,3.028,0,0,1-.647,1.5,0.826,0.826,0,0,0-.136.82l1.346,3.54h-3.533Z" transform="translate(-542.031 -1528.34)"/>
</svg>
