<svg xmlns="http://www.w3.org/2000/svg" width="28.968" height="28.93" viewBox="0 0 28.968 28.93"><defs><style>.cls-1{fill:#777;fill-rule:evenodd}</style></defs><path id="exp1.svg" class="cls-1" d="M177.468 1452.76a1.067 1.067 0 0 0-.909-.8l-2.373-.31c-.051-.14-.087-.24-.092-.25l-.04-.09s-.037-.09-.1-.21l1.458-1.9a1.079 1.079 0 0 0 .074-1.21 15.8 15.8 0 0 0-4.346-4.35 1.075 1.075 0 0 0-1.212.07l-1.9 1.46c-.127-.06-.211-.09-.211-.09s-.022-.01-.034-.02l-.088-.03s-.085-.04-.217-.09l-.31-2.37a1.084 1.084 0 0 0-.805-.91 15.894 15.894 0 0 0-6.147 0 1.083 1.083 0 0 0-.805.91l-.31 2.37a1.665 1.665 0 0 1-.237.09l-.072.03c-.01.01-.02.01-.03.02s-.083.03-.211.09l-1.9-1.46a1.094 1.094 0 0 0-1.213-.07 15.8 15.8 0 0 0-4.346 4.35 1.081 1.081 0 0 0 .074 1.21l1.458 1.9a4.25 4.25 0 0 0-.095.21h.005a1.279 1.279 0 0 0-.055.12s-.033.08-.083.22l-2.372.31a1.069 1.069 0 0 0-.91.8 16.014 16.014 0 0 0 0 6.15 1.082 1.082 0 0 0 .91.8l2.372.31.09.24.03.07c0 .01.008.02.013.03s.037.09.095.21l-1.458 1.9a1.081 1.081 0 0 0-.074 1.21 13.57 13.57 0 0 0 1.961 2.39 14.085 14.085 0 0 0 2.386 1.96 1.094 1.094 0 0 0 1.212-.08l1.9-1.45c.129.05.212.09.212.09a.037.037 0 0 0 .03.01l.091.04s.085.03.218.08l.31 2.38a1.084 1.084 0 0 0 .805.91 16.432 16.432 0 0 0 6.147 0 1.084 1.084 0 0 0 .805-.91l.31-2.38c.137-.05.23-.08.24-.09l.1-.04s.083-.04.211-.09l1.9 1.45a1.1 1.1 0 0 0 1.213.08 14.125 14.125 0 0 0 2.384-1.96 13.456 13.456 0 0 0 1.961-2.39 1.079 1.079 0 0 0-.073-1.21l-1.459-1.9.1-.21.012-.03.038-.09s.033-.08.082-.22l2.373-.31a1.08 1.08 0 0 0 .909-.8 15.962 15.962 0 0 0-.002-6.15zm-1.981 4.9l-2.239.3a1.074 1.074 0 0 0-.886.72c-.128.38-.274.76-.274.76l-.023.06c-.032.07-.184.41-.343.73a1.083 1.083 0 0 0 .113 1.14l1.376 1.79a13.923 13.923 0 0 1-1.216 1.37 15.094 15.094 0 0 1-1.373 1.22l-1.79-1.38a1.1 1.1 0 0 0-1.141-.11c-.354.17-.722.34-.722.34l-.049.02s-.39.15-.776.28a1.085 1.085 0 0 0-.725.89l-.293 2.24a15.294 15.294 0 0 1-3.662 0l-.292-2.24a1.086 1.086 0 0 0-.726-.89c-.376-.13-.755-.27-.755-.27l-.058-.03c-.072-.03-.408-.18-.732-.34a1.1 1.1 0 0 0-1.141.11l-1.79 1.38a14.828 14.828 0 0 1-1.373-1.22 13.958 13.958 0 0 1-1.217-1.37l1.377-1.79a1.083 1.083 0 0 0 .113-1.14c-.161-.33-.313-.67-.344-.74l-.015-.03c0-.01-.151-.39-.281-.78a1.072 1.072 0 0 0-.886-.72l-2.24-.3a15.209 15.209 0 0 1 0-3.66l2.239-.29a1.084 1.084 0 0 0 .886-.73c.129-.38.279-.76.281-.77a.036.036 0 0 1 .009-.02s.17-.39.35-.75a1.083 1.083 0 0 0-.113-1.14l-1.377-1.79a12.97 12.97 0 0 1 1.216-1.37 14.947 14.947 0 0 1 1.374-1.22l1.79 1.38a1.1 1.1 0 0 0 1.141.11c.326-.16.666-.32.734-.35l.035-.01c.007 0 .394-.15.776-.28a1.1 1.1 0 0 0 .726-.89l.292-2.24a15.294 15.294 0 0 1 3.662 0l.293 2.24a1.1 1.1 0 0 0 .725.89c.378.13.76.27.76.27l.055.03c.076.03.41.18.732.34a1.074 1.074 0 0 0 1.14-.12l1.79-1.37a16.048 16.048 0 0 1 1.373 1.21 13.827 13.827 0 0 1 1.216 1.38l-1.376 1.79a1.083 1.083 0 0 0-.113 1.14c.174.35.338.72.338.72l.02.05s.152.39.282.77a1.071 1.071 0 0 0 .886.73l2.239.29a14.518 14.518 0 0 1 .111 1.83 14.258 14.258 0 0 1-.109 1.83zm-12.19-8.74a6.91 6.91 0 1 0 6.908 6.91 6.917 6.917 0 0 0-6.905-6.91zm0 11.65a4.74 4.74 0 1 1 4.739-4.74 4.742 4.742 0 0 1-4.736 4.74z" transform="translate(-148.813 -1441.38)"/></svg>