<svg xmlns="http://www.w3.org/2000/svg" width="40.75" height="28.1" viewBox="0 0 40.75 28.1"><defs><style>.cls-1{fill:#777;fill-rule:evenodd}</style></defs><path id="exp3.svg" class="cls-1" d="M569.137 1452.93a7.245 7.245 0 0 0-1.449-5.02 6.594 6.594 0 0 0-5.205-2.46 7.318 7.318 0 0 0-3.712 1.02 10.344 10.344 0 0 0-8.466-4.67 10.025 10.025 0 0 0-8.252 4.39 9.063 9.063 0 0 0-1.247 7.32c-5 2.19-6.319 6.35-5.851 9.46a7.871 7.871 0 0 0 7.689 6.89c.148 0 14.914.04 23.86.04 5.884 0 8.859-4.13 9.132-7.97a8.656 8.656 0 0 0-6.499-9zm3.178 8.76c-.174 2.43-2.038 4.88-5.811 4.88-8.941 0-23.7-.05-23.855-.05a4.572 4.572 0 0 1-4.4-4.04c-.43-2.87 1.487-5.25 5.129-6.37a1.674 1.674 0 0 0 1.046-2.24 6.029 6.029 0 0 1 .4-5.83 6.64 6.64 0 0 1 5.48-2.9c2.663 0 4.985 1.61 6.539 4.54a1.666 1.666 0 0 0 1.214.86 1.687 1.687 0 0 0 1.42-.45 4.336 4.336 0 0 1 3-1.31 3.278 3.278 0 0 1 2.6 1.2 4.45 4.45 0 0 1 .567 3.87 1.666 1.666 0 0 0 1.385 2.03c3.898.56 5.463 3.32 5.286 5.81zm-22.605-14.88a4.468 4.468 0 0 0-4.339 4.8 1.462 1.462 0 0 0 1.451 1.35.418.418 0 0 0 .111-.01 1.456 1.456 0 0 0 1.343-1.56 1.553 1.553 0 0 1 1.69-1.68 1.456 1.456 0 1 0-.256-2.9z" transform="translate(-534.875 -1441.81)"/></svg>