<svg xmlns="http://www.w3.org/2000/svg" width="26.5" height="37.82" viewBox="0 0 26.5 37.82"><defs><style>.cls-1{fill:#777;fill-rule:evenodd}</style></defs><path id="exp4.svg" class="cls-1" d="M566.866 1541.82h-.982c.006-2.58-.41-7.27-3.2-10.39a10.45 10.45 0 0 0-14.8 0c-2.8 3.12-3.211 7.81-3.2 10.39h-.984a1.661 1.661 0 0 0-1.666 1.66v21.01a1.67 1.67 0 0 0 1.666 1.67h23.169a1.669 1.669 0 0 0 1.665-1.67v-21.01a1.66 1.66 0 0 0-1.668-1.66zm-16.5-8.17a7.13 7.13 0 0 1 9.82 0c2.067 2.3 2.367 6.09 2.359 8.17h-14.533c-.007-2.08.288-5.87 2.359-8.17zm14.829 29.18h-19.833v-17.68H565.2v17.68zm-7.742-8.87a4.186 4.186 0 0 0 .733-2.15 2.891 2.891 0 1 0-5.747 0 4.052 4.052 0 0 0 .759 2.15l-1.639 4.25a.831.831 0 0 0 .089.77.85.85 0 0 0 .687.36h5.955a.848.848 0 0 0 .686-.36.838.838 0 0 0 .093-.77zm-3.9 3.71l1.366-3.54a.82.82 0 0 0-.141-.83 2.964 2.964 0 0 1-.67-1.49c0-.02.033-1.54 1.208-1.54s1.207 1.52 1.207 1.54a3.028 3.028 0 0 1-.647 1.5.826.826 0 0 0-.136.82l1.346 3.54h-3.533z" transform="translate(-542.031 -1528.34)"/></svg>