<svg xmlns="http://www.w3.org/2000/svg" width="28.875" height="28.91" viewBox="0 0 28.875 28.91"><defs><style>.cls-1{fill:#777;fill-rule:evenodd}</style></defs><path id="pie-icon.svg" class="cls-1" d="M143.66 2345v-10.95a1.083 1.083 0 0 0-1.077-1.08 12.043 12.043 0 0 0-12.025 12.03 1.074 1.074 0 0 0 1.077 1.07h10.948a1.075 1.075 0 0 0 1.077-1.07zm-2.154-1.08h-8.736a9.9 9.9 0 0 1 8.736-8.74v8.74zm5.037-9a1.23 1.23 0 0 0-1.23 1.23v11.58h-11.578a1.23 1.23 0 0 0-1.231 1.23c0 7.12 6.044 12.91 13.473 12.91a13.494 13.494 0 0 0 13.473-13.48c0-7.3-5.911-13.47-12.907-13.47zm-.566 24.48a10.836 10.836 0 0 1-10.935-9.21h11.5a1.23 1.23 0 0 0 1.231-1.23v-11.5a11.046 11.046 0 0 1-1.796 21.94z" transform="translate(-130.563 -2332.97)"/></svg>